<svg width="24" height="25" viewBox="0 0 24 25" fill="none" xmlns="http://www.w3.org/2000/svg">
<path d="M11 2.20703H9C4 2.20703 2 4.20703 2 9.20703V15.207C2 20.207 4 22.207 9 22.207H15C20 22.207 22 20.207 22 15.207V13.207" stroke="#292D32" stroke-width="1.5" stroke-linecap="round" stroke-linejoin="round"/>
<path d="M16.04 3.22631L8.16 11.1063C7.86 11.4063 7.56 11.9963 7.5 12.4263L7.07 15.4363C6.91 16.5263 7.68 17.2863 8.77 17.1363L11.78 16.7063C12.2 16.6463 12.79 16.3463 13.1 16.0463L20.98 8.16631C22.34 6.80631 22.98 5.22631 20.98 3.22631C18.98 1.22631 17.4 1.86631 16.04 3.22631Z" stroke="#292D32" stroke-width="1.5" stroke-miterlimit="10" stroke-linecap="round" stroke-linejoin="round"/>
<path d="M14.91 4.35742C15.58 6.74742 17.45 8.61742 19.85 9.29742" stroke="#292D32" stroke-width="1.5" stroke-miterlimit="10" stroke-linecap="round" stroke-linejoin="round"/>
</svg>
