<svg width="580" height="580" viewBox="0 0 580 580" fill="none" xmlns="http://www.w3.org/2000/svg">
<rect width="580" height="580" fill="#EEEEEE"/>
<path d="M241.363 325.09L241.267 325.185C239.973 322.358 239.159 319.148 238.823 315.602C239.159 319.1 240.069 322.262 241.363 325.09Z" fill="#BDBDBD"/>
<path d="M272.125 283.738C278.423 283.738 283.529 278.632 283.529 272.333C283.529 266.035 278.423 260.929 272.125 260.929C265.827 260.929 260.721 266.035 260.721 272.333C260.721 278.632 265.827 283.738 272.125 283.738Z" fill="#BDBDBD"/>
<path d="M306.577 243.583H266.423C248.981 243.583 238.583 253.981 238.583 271.423V311.577C238.583 316.8 239.493 321.352 241.266 325.186C245.387 334.29 254.204 339.417 266.423 339.417H306.577C324.018 339.417 334.416 329.019 334.416 311.577V300.604V271.423C334.416 253.981 324.018 243.583 306.577 243.583ZM326.606 293.896C322.868 290.686 316.831 290.686 313.093 293.896L293.16 311.002C289.423 314.213 283.385 314.213 279.648 311.002L278.018 309.661C274.616 306.69 269.202 306.402 265.368 308.99L247.448 321.017C246.393 318.333 245.771 315.219 245.771 311.577V271.423C245.771 257.911 252.91 250.771 266.423 250.771H306.577C320.089 250.771 327.229 257.911 327.229 271.423V294.423L326.606 293.896Z" fill="#BDBDBD"/>
</svg>
