<svg width="16" height="16" viewBox="0 0 16 16" fill="none" xmlns="http://www.w3.org/2000/svg">
<path fill-rule="evenodd" clip-rule="evenodd" d="M15.5969 9.9281C15.8657 9.45312 16 8.93433 16 8.375C16 7.78125 15.8501 7.23438 15.5532 6.73755C15.2563 6.24377 14.8562 5.87817 14.3562 5.64062C14.4751 5.31873 14.5344 4.96252 14.5344 4.56873C14.5344 3.72498 14.2532 3.00623 13.6875 2.40942C13.1218 1.8125 12.4407 1.51562 11.6438 1.51562C11.2844 1.51562 10.9468 1.5813 10.625 1.71252C10.375 1.19995 10.0125 0.787476 9.5437 0.471924C9.07495 0.159424 8.55933 0 8 0C7.44067 0 6.92505 0.159424 6.4563 0.474976C5.98438 0.790649 5.625 1.20312 5.375 1.71558C5.05322 1.58435 4.7124 1.5188 4.3562 1.5188C3.55933 1.5188 2.875 1.81873 2.30322 2.41248C1.7312 3.00623 1.44678 3.72815 1.44678 4.5719C1.44678 4.80444 1.47485 5.03833 1.53076 5.27197C1.56055 5.39612 1.59814 5.52014 1.6438 5.6438C1.1438 5.88123 0.743652 6.24683 0.446777 6.7406C0.149902 7.23438 0 7.78125 0 8.375C0 8.93433 0.134277 9.45312 0.399902 9.9281C0.668701 10.4031 1.02808 10.7719 1.4812 11.0344C1.45947 11.2031 1.44678 11.3344 1.44678 11.4281C1.44678 12.2719 1.7312 12.9938 2.30322 13.5875C2.875 14.1843 3.55933 14.4812 4.3562 14.4812C4.71558 14.4812 5.05322 14.4156 5.375 14.2844C5.625 14.8093 5.9812 15.225 6.44678 15.5344C6.90942 15.8469 7.42822 16 8 16C8.55933 16 9.07495 15.8438 9.5437 15.525C10.0156 15.2094 10.375 14.7969 10.625 14.2844C10.9468 14.4156 11.2876 14.4812 11.6438 14.4812C12.4407 14.4812 13.1218 14.1843 13.6875 13.5875C14.25 12.9938 14.5344 12.275 14.5344 11.4281C14.5344 11.25 14.5281 11.1188 14.5156 11.0344C14.9688 10.775 15.3281 10.4031 15.5969 9.9281Z" fill="#F6BF30"/>
<path fill-rule="evenodd" clip-rule="evenodd" d="M11.5024 10.1403V7.91272C11.2235 8.23626 10.8144 8.41849 10.3644 8.41849C9.90325 8.41849 9.46071 8.19164 9.17436 7.82347C8.91775 8.19536 8.4938 8.41849 8.01779 8.41849C7.53805 8.41849 7.10666 8.1842 6.85378 7.80859C6.57115 8.1842 6.12116 8.41849 5.65258 8.41849C5.21748 8.41849 4.81584 8.2437 4.5332 7.93875V10.1403C4.5332 11.1667 5.36623 11.9998 6.39264 11.9998H9.64293C10.6693 11.9998 11.5024 11.1667 11.5024 10.1403ZM6.94611 10.7976C6.94611 10.3216 7.30312 9.91993 7.77542 9.87159C8.63076 9.78233 9.08818 10.1505 9.08446 10.9277V11.9988H6.94611V10.7976Z" fill="#292D32"/>
<mask id="path-3-outside-1_10731_53256" maskUnits="userSpaceOnUse" x="3.13867" y="3.14062" width="10" height="6" fill="black">
<rect fill="white" x="3.13867" y="3.14062" width="10" height="6"/>
<path fill-rule="evenodd" clip-rule="evenodd" d="M4.24627 5.7323C4.40618 4.59805 4.91195 4.14062 6.0053 4.14062V4.14434H6.89776L6.89813 4.14062H8.57978H9.12946H10.0078C11.0975 4.14062 11.6069 4.59805 11.7631 5.72115L11.871 6.75127C11.9082 7.13804 11.8078 7.51364 11.5846 7.81115C11.3057 8.19791 10.8594 8.41733 10.3648 8.41733C9.90602 8.41733 9.46313 8.1916 9.17532 7.82543C8.9185 8.19486 8.49517 8.41733 8.01752 8.41733C7.54181 8.41733 7.10824 8.18555 6.85423 7.81066C6.56932 8.18357 6.11891 8.41733 5.65201 8.41733C5.16855 8.41733 4.73345 8.20907 4.45081 7.8409C4.21652 7.53967 4.10867 7.15291 4.14586 6.75499L4.24627 5.7323Z"/>
</mask>
<path fill-rule="evenodd" clip-rule="evenodd" d="M4.24627 5.7323C4.40618 4.59805 4.91195 4.14062 6.0053 4.14062V4.14434H6.89776L6.89813 4.14062H8.57978H9.12946H10.0078C11.0975 4.14062 11.6069 4.59805 11.7631 5.72115L11.871 6.75127C11.9082 7.13804 11.8078 7.51364 11.5846 7.81115C11.3057 8.19791 10.8594 8.41733 10.3648 8.41733C9.90602 8.41733 9.46313 8.1916 9.17532 7.82543C8.9185 8.19486 8.49517 8.41733 8.01752 8.41733C7.54181 8.41733 7.10824 8.18555 6.85423 7.81066C6.56932 8.18357 6.11891 8.41733 5.65201 8.41733C5.16855 8.41733 4.73345 8.20907 4.45081 7.8409C4.21652 7.53967 4.10867 7.15291 4.14586 6.75499L4.24627 5.7323Z" fill="#292D32"/>
<path d="M6.0053 4.14062H6.4053V3.74062H6.0053V4.14062ZM4.24627 5.7323L3.85019 5.67646L3.84901 5.68482L3.84819 5.69322L4.24627 5.7323ZM6.0053 4.14434H5.6053V4.54434H6.0053V4.14434ZM6.89776 4.14434V4.54434H7.25957L7.29575 4.18435L6.89776 4.14434ZM6.89813 4.14062V3.74062H6.53633L6.50014 4.10062L6.89813 4.14062ZM11.7631 5.72115L12.1612 5.67947L12.1593 5.66605L11.7631 5.72115ZM11.871 6.75127L12.2692 6.71299L12.2688 6.70962L11.871 6.75127ZM11.5846 7.81115L11.2646 7.57111L11.2602 7.57718L11.5846 7.81115ZM9.17532 7.82543L9.4898 7.57824L9.15558 7.15303L8.84688 7.59711L9.17532 7.82543ZM6.85423 7.81066L7.18538 7.58629L6.87372 7.1263L6.53639 7.56782L6.85423 7.81066ZM4.45081 7.8409L4.7681 7.59732L4.76655 7.59533L4.45081 7.8409ZM4.14586 6.75499L3.74777 6.71591L3.7476 6.71777L4.14586 6.75499ZM6.0053 3.74062C5.40883 3.74062 4.89387 3.86482 4.50738 4.2145C4.12435 4.56105 3.93602 5.06766 3.85019 5.67646L4.64236 5.78814C4.71644 5.26268 4.86094 4.97346 5.04411 4.80773C5.22382 4.64514 5.50842 4.54063 6.0053 4.54063V3.74062ZM6.4053 4.14434V4.14062H5.6053V4.14434H6.4053ZM6.89776 3.74434H6.0053V4.54434H6.89776V3.74434ZM7.29575 4.18435L7.29613 4.18063L6.50014 4.10062L6.49977 4.10434L7.29575 4.18435ZM6.89813 4.54063H8.57978V3.74062H6.89813V4.54063ZM8.57978 4.54063H9.12946V3.74062H8.57978V4.54063ZM9.12946 4.54063H10.0078V3.74062H9.12946V4.54063ZM10.0078 4.54063C10.5026 4.54063 10.7879 4.64504 10.968 4.80706C11.1508 4.97162 11.2949 5.25798 11.3669 5.77624L12.1593 5.66605C12.0752 5.06121 11.8864 4.55731 11.5031 4.21238C11.1169 3.86492 10.6027 3.74062 10.0078 3.74062V4.54063ZM11.3653 5.7628L11.4732 6.79292L12.2688 6.70962L12.161 5.6795L11.3653 5.7628ZM11.4728 6.78956C11.501 7.0832 11.4243 7.35822 11.2646 7.57115L11.9046 8.05115C12.1912 7.66906 12.3153 7.19287 12.2691 6.71299L11.4728 6.78956ZM11.2602 7.57718C11.0609 7.85348 10.7388 8.01733 10.3648 8.01733V8.81733C10.9801 8.81733 11.5505 8.54235 11.9091 8.04512L11.2602 7.57718ZM10.3648 8.01733C10.0358 8.01733 9.70624 7.85361 9.4898 7.57824L8.86083 8.07261C9.22003 8.5296 9.77626 8.81733 10.3648 8.81733V8.01733ZM8.84688 7.59711C8.66689 7.85602 8.36784 8.01733 8.01752 8.01733V8.81733C8.6225 8.81733 9.17011 8.53369 9.50375 8.05374L8.84688 7.59711ZM8.01752 8.01733C7.67197 8.01733 7.36356 7.84927 7.18538 7.58629L6.52308 8.03503C6.85291 8.52183 7.41165 8.81733 8.01752 8.81733V8.01733ZM5.65201 8.81733C6.25018 8.81733 6.8156 8.52008 7.17208 8.05351L6.53639 7.56782C6.32303 7.84707 5.98764 8.01733 5.65201 8.01733V8.81733ZM4.13352 8.08448C4.49576 8.55634 5.05077 8.81733 5.65201 8.81733V8.01733C5.28633 8.01733 4.97113 7.8618 4.7681 7.59733L4.13352 8.08448ZM3.7476 6.71777C3.70152 7.21086 3.8346 7.70016 4.13507 8.08648L4.76655 7.59533C4.59844 7.37918 4.51583 7.09496 4.54413 6.79221L3.7476 6.71777ZM3.84819 5.69322L3.74778 6.71591L4.54395 6.79408L4.64436 5.77139L3.84819 5.69322Z" fill="#F6BF30" mask="url(#path-3-outside-1_10731_53256)"/>
<path d="M7.75504 9.67354C7.17896 9.73261 6.74629 10.2218 6.74629 10.7985V11.9997V12.1997H6.94629H9.08464H9.28464V11.9997V10.9291M7.75504 9.67354C7.7551 9.67353 7.75517 9.67353 7.75523 9.67352L7.7756 9.87248L7.75484 9.67356C7.75491 9.67355 7.75497 9.67355 7.75504 9.67354ZM7.75504 9.67354C8.20964 9.62614 8.59948 9.69552 8.8778 9.91993C9.16095 10.1482 9.28659 10.5024 9.28464 10.9291M9.28464 10.9291C9.28464 10.9293 9.28464 10.9294 9.28464 10.9296L9.08464 10.9286H9.28464V10.9291Z" fill="#292D32" stroke="#F6BF30" stroke-width="0.4"/>
</svg>
