<svg width="33" height="33" viewBox="0 0 33 33" fill="none" xmlns="http://www.w3.org/2000/svg">
<rect width="33" height="33" rx="16.5" fill="#D1D1D1"/>
<path d="M19.5074 10.3361L11.857 12.8786C6.71434 14.599 6.71434 17.4042 11.857 19.1162L14.1275 19.8705L14.8816 22.1418C16.593 27.2861 19.4057 27.2861 21.1171 22.1418L23.6673 14.4973C24.8025 11.0649 22.9387 9.19197 19.5074 10.3361ZM19.7785 14.8956L16.5591 18.1331C16.432 18.2602 16.271 18.3195 16.11 18.3195C15.9491 18.3195 15.7881 18.2602 15.661 18.1331C15.4153 17.8873 15.4153 17.4805 15.661 17.2347L18.8805 13.9973C19.1262 13.7515 19.5328 13.7515 19.7785 13.9973C20.0242 14.2431 20.0242 14.6499 19.7785 14.8956Z" fill="#A5A5A5"/>
</svg>
