<svg width="24" height="24" viewBox="0 0 24 24" fill="none" xmlns="http://www.w3.org/2000/svg">
<path d="M12 16.3299C9.61001 16.3299 7.67001 14.3899 7.67001 11.9999C7.67001 9.60992 9.61001 7.66992 12 7.66992C14.39 7.66992 16.33 9.60992 16.33 11.9999C16.33 14.3899 14.39 16.3299 12 16.3299ZM12 9.16992C10.44 9.16992 9.17001 10.4399 9.17001 11.9999C9.17001 13.5599 10.44 14.8299 12 14.8299C13.56 14.8299 14.83 13.5599 14.83 11.9999C14.83 10.4399 13.56 9.16992 12 9.16992Z" fill="white"/>
<path d="M12 21.0205C8.23999 21.0205 4.68999 18.8205 2.24999 15.0005C1.18999 13.3505 1.18999 10.6605 2.24999 9.00047C4.69999 5.18047 8.24999 2.98047 12 2.98047C15.75 2.98047 19.3 5.18047 21.74 9.00047C22.8 10.6505 22.8 13.3405 21.74 15.0005C19.3 18.8205 15.75 21.0205 12 21.0205ZM12 4.48047C8.76999 4.48047 5.67999 6.42047 3.51999 9.81047C2.76999 10.9805 2.76999 13.0205 3.51999 14.1905C5.67999 17.5805 8.76999 19.5205 12 19.5205C15.23 19.5205 18.32 17.5805 20.48 14.1905C21.23 13.0205 21.23 10.9805 20.48 9.81047C18.32 6.42047 15.23 4.48047 12 4.48047Z" fill="white"/>
</svg>
